<svg xmlns="http://www.w3.org/2000/svg" xmlns:xlink="http://www.w3.org/2000/svg">

<!-- FACEBOOK -->
<symbol id="fb" viewBox="0 0 40 40" >
<path d="M23.7188 21L24.1562 18.125H21.375V16.25C21.375 15.4375 21.75 14.6875 23 14.6875H24.2812V12.2188C24.2812 12.2188 23.125 12 22.0312 12C19.75 12 18.25 13.4062 18.25 15.9062V18.125H15.6875V21H18.25V28H21.375V21H23.7188Z" fill="white"/>
<circle opacity="0.4" cx="20" cy="20" r="19.5"/>
</symbol>


<!-- INSTAGRAM -->

<symbol id="insta" viewBox="0 0 40 40">
<path d="M20 16.4062C18 16.4062 16.4062 18.0312 16.4062 20C16.4062 22 18 23.5938 20 23.5938C21.9688 23.5938 23.5938 22 23.5938 20C23.5938 18.0312 21.9688 16.4062 20 16.4062ZM20 22.3438C18.7188 22.3438 17.6562 21.3125 17.6562 20C17.6562 18.7188 18.6875 17.6875 20 17.6875C21.2812 17.6875 22.3125 18.7188 22.3125 20C22.3125 21.3125 21.2812 22.3438 20 22.3438ZM24.5625 16.2812C24.5625 15.8125 24.1875 15.4375 23.7188 15.4375C23.25 15.4375 22.875 15.8125 22.875 16.2812C22.875 16.75 23.25 17.125 23.7188 17.125C24.1875 17.125 24.5625 16.75 24.5625 16.2812ZM26.9375 17.125C26.875 16 26.625 15 25.8125 14.1875C25 13.375 24 13.125 22.875 13.0625C21.7188 13 18.25 13 17.0938 13.0625C15.9688 13.125 15 13.375 14.1562 14.1875C13.3438 15 13.0938 16 13.0312 17.125C12.9688 18.2812 12.9688 21.75 13.0312 22.9062C13.0938 24.0312 13.3438 25 14.1562 25.8438C15 26.6562 15.9688 26.9062 17.0938 26.9688C18.25 27.0312 21.7188 27.0312 22.875 26.9688C24 26.9062 25 26.6562 25.8125 25.8438C26.625 25 26.875 24.0312 26.9375 22.9062C27 21.75 27 18.2812 26.9375 17.125ZM25.4375 24.125C25.2188 24.75 24.7188 25.2188 24.125 25.4688C23.1875 25.8438 21 25.75 20 25.75C18.9688 25.75 16.7812 25.8438 15.875 25.4688C15.25 25.2188 14.7812 24.75 14.5312 24.125C14.1562 23.2188 14.25 21.0312 14.25 20C14.25 19 14.1562 16.8125 14.5312 15.875C14.7812 15.2812 15.25 14.8125 15.875 14.5625C16.7812 14.1875 18.9688 14.2812 20 14.2812C21 14.2812 23.1875 14.1875 24.125 14.5625C24.7188 14.7812 25.1875 15.2812 25.4375 15.875C25.8125 16.8125 25.7188 19 25.7188 20C25.7188 21.0312 25.8125 23.2188 25.4375 24.125Z" fill="white"/>
<circle opacity="0.4" cx="20" cy="20" r="19.5" stroke="white"/>
</symbol>

<!-- TWITTER -->

<symbol id="twitter" viewBox="0 0 40 40">
		<path class="st1" d="M26.3,16.7c0,0.1,0,0.2,0,0.4c0,1.1-0.2,2.2-0.6,3.3c-0.4,1.1-1,2.1-1.8,3c-0.8,0.9-1.7,1.6-2.9,2.2
			c-1.2,0.6-2.5,0.8-4,0.8c-1.8,0-3.5-0.5-5-1.5c0.2,0,0.5,0,0.8,0c1.5,0,2.9-0.5,4.1-1.4c-0.7,0-1.4-0.2-1.9-0.6
			c-0.5-0.4-0.9-1-1.1-1.6c0.2,0,0.4,0,0.6,0c0.3,0,0.6,0,0.9-0.1c-0.5-0.1-0.9-0.3-1.3-0.6c-0.4-0.3-0.7-0.7-0.9-1.1
			c-0.2-0.5-0.3-0.9-0.3-1.5v-0.1c0.5,0.3,0.9,0.4,1.5,0.4c-1-0.7-1.5-1.6-1.5-2.8c0-0.6,0.2-1.1,0.5-1.7c0.8,1,1.8,1.8,3,2.4
			c1.2,0.6,2.4,0.9,3.8,1c0-0.3-0.1-0.5-0.1-0.8c0-0.9,0.3-1.7,0.9-2.3c0.6-0.6,1.4-1,2.3-1c1,0,1.8,0.3,2.4,1
			c0.8-0.1,1.4-0.4,2.1-0.8c-0.3,0.8-0.7,1.4-1.4,1.8c0.6-0.1,1.3-0.3,1.9-0.5C27.5,15.7,27,16.3,26.3,16.7z" fill="white"/>-->

        <circle opacity="0.4" cx="20" cy="20" r="19.5" stroke="white"/>

</symbol>

<!-- POINT-ELLIPSE -->
<symbol id="point" viewBox="0 0 9 9" >
<circle cx="4.5" cy="4.5" r="4" stroke="white"/>
</symbol>

<!-- ARROW HEADER -->
<symbol id="arrow" viewBox="0 0 40 40" >
<path d="M23.9983 19.3036C23.9983 19.2366 23.9648 19.1613 23.9146 19.111L23.4961 18.6925C23.4459 18.6423 23.3705 18.6088 23.3036 18.6088C23.2366 18.6088 23.1613 18.6423 23.111 18.6925L19.8214 21.9821L16.5318 18.6925C16.4816 18.6423 16.4063 18.6088 16.3393 18.6088C16.264 18.6088 16.197 18.6423 16.1468 18.6925L15.7282 19.111C15.678 19.1613 15.6445 19.2366 15.6445 19.3036C15.6445 19.3705 15.678 19.4459 15.7282 19.4961L19.6289 23.3968C19.6791 23.447 19.7545 23.4805 19.8214 23.4805C19.8884 23.4805 19.9637 23.447 20.014 23.3968L23.9146 19.4961C23.9648 19.4459 23.9983 19.3705 23.9983 19.3036Z" fill="white"/>
<circle opacity="0.7" cx="20" cy="20" r="19.5" stroke="white" fill="none"/>
</symbol>

<!-- LOCATION -->
<symbol id="location" viewBox="0 0 9 14" >
<path d="M6.42857 4.5C6.42857 5.68025 5.46596 6.64286 4.28571 6.64286C3.10547 6.64286 2.14286 5.68025 2.14286 4.5C2.14286 3.31975 3.10547 2.35714 4.28571 2.35714C5.46596 2.35714 6.42857 3.31975 6.42857 4.5ZM8.57143 4.5C8.57143 2.13114 6.65458 0.214285 4.28571 0.214285C1.91685 0.214285 0 2.13114 0 4.5C0 5.0106 0.0585938 5.53795 0.276228 5.99833L3.33147 12.4771C3.49888 12.8454 3.88393 13.0714 4.28571 13.0714C4.6875 13.0714 5.07254 12.8454 5.24833 12.4771L8.2952 5.99833C8.51284 5.53795 8.57143 5.0106 8.57143 4.5Z"/>
</symbol>

</svg>