<?xml version="1.0" encoding="utf-8"?>
<!-- Generator: Adobe Illustrator 23.0.1, SVG Export Plug-In . SVG Version: 6.00 Build 0)  -->
<svg version="1.1" id="Layer_1" xmlns="http://www.w3.org/2000/svg" xmlns:xlink="http://www.w3.org/1999/xlink" x="0px" y="0px"
	 viewBox="0 0 40 40" style="enable-background:new 0 0 40 40;" xml:space="preserve">
<style type="text/css">
	.st0{opacity:0.4;}
	.st1{fill:#FFFFFF;filter:url(#Adobe_OpacityMaskFilter);}
	.st2{fill:#FFFFFF;}
	.st3{mask:url(#path-1-inside-1_35_26_1_);fill:#FFFFFF;stroke:#FFFFFF;stroke-miterlimit:10;}
</style>
<g class="st0">
	<defs>
		<filter id="Adobe_OpacityMaskFilter" filterUnits="userSpaceOnUse" x="-1.5" y="-1.5" width="43" height="43">
			<feColorMatrix  type="matrix" values="1 0 0 0 0  0 1 0 0 0  0 0 1 0 0  0 0 0 1 0"/>
		</filter>
	</defs>
	<mask maskUnits="userSpaceOnUse" x="-1.5" y="-1.5" width="43" height="43" id="path-1-inside-1_35_26_1_">
		<path class="st1" d="M26.3,16.7c0,0.1,0,0.2,0,0.4c0,1.1-0.2,2.2-0.6,3.3c-0.4,1.1-1,2.1-1.8,3c-0.8,0.9-1.7,1.6-2.9,2.2
			c-1.2,0.6-2.5,0.8-4,0.8c-1.8,0-3.5-0.5-5-1.5c0.2,0,0.5,0,0.8,0c1.5,0,2.9-0.5,4.1-1.4c-0.7,0-1.4-0.2-1.9-0.6
			c-0.5-0.4-0.9-1-1.1-1.6c0.2,0,0.4,0,0.6,0c0.3,0,0.6,0,0.9-0.1c-0.5-0.1-0.9-0.3-1.3-0.6c-0.4-0.3-0.7-0.7-0.9-1.1
			c-0.2-0.5-0.3-0.9-0.3-1.5v-0.1c0.5,0.3,0.9,0.4,1.5,0.4c-1-0.7-1.5-1.6-1.5-2.8c0-0.6,0.2-1.1,0.5-1.7c0.8,1,1.8,1.8,3,2.4
			c1.2,0.6,2.4,0.9,3.8,1c0-0.3-0.1-0.5-0.1-0.8c0-0.9,0.3-1.7,0.9-2.3c0.6-0.6,1.4-1,2.3-1c1,0,1.8,0.3,2.4,1
			c0.8-0.1,1.4-0.4,2.1-0.8c-0.3,0.8-0.7,1.4-1.4,1.8c0.6-0.1,1.3-0.3,1.9-0.5C27.5,15.7,27,16.3,26.3,16.7z"/>
		<path class="st2" d="M40,20c0,11-9,20-20,20S0,31,0,20S9,0,20,0S40,9,40,20z"/>
	</mask>
	<path class="st3" d="M26.3,16.7l-0.6-0.8l-0.5,0.4l0.2,0.6L26.3,16.7z M25.8,20.5l0.9,0.4l0,0L25.8,20.5z M24,23.5l-0.8-0.6l0,0
		L24,23.5z M12,25l0.1-1l-0.6,1.8L12,25z M16.9,23.7l0.6,0.8l2.3-1.8h-2.9V23.7z M14.9,23l-0.6,0.8l0,0l0,0L14.9,23z M13.8,21.4
		l0.1-1l-1.5-0.2l0.5,1.5L13.8,21.4z M15.3,21.3l0.2,1l0-2L15.3,21.3z M13,19.6L12.1,20l0,0l0,0L13,19.6z M12.7,18.1l0.5-0.9
		l-1.5-0.9v1.8H12.7z M14.1,18.5l0,1l3.5,0.1l-2.9-2L14.1,18.5z M13.1,14.1l0.8-0.6L13,12.3l-0.7,1.2L13.1,14.1z M16.1,16.5
		l-0.5,0.9l0,0L16.1,16.5z M19.9,17.5l0,1l1.2,0.1l-0.2-1.2L19.9,17.5z M20.8,14.5L20,13.8l0,0l0,0L20.8,14.5z M25.5,14.5l-0.7,0.7
		l0.4,0.4l0.5-0.1L25.5,14.5z M27.6,13.7l1,0.3l0.8-2.5l-2.3,1.3L27.6,13.7z M26.1,15.6l-0.5-0.9l0.7,1.8L26.1,15.6z M28,15l0.8,0.6
		l2-2.9l-3.2,1.4L28,15z M25.4,17C25.4,17,25.4,17,25.4,17C25.4,17,25.4,17,25.4,17c0,0,0,0.1,0,0.2h2c0-0.2,0-0.4-0.1-0.6L25.4,17z
		 M25.4,17.2c0,1-0.2,2-0.6,3l1.9,0.7c0.5-1.2,0.7-2.4,0.7-3.7H25.4z M24.8,20.1c-0.4,1-0.9,1.9-1.6,2.7l1.5,1.3
		c0.8-1,1.5-2.1,1.9-3.3L24.8,20.1z M23.2,22.8c-0.6,0.8-1.5,1.4-2.6,1.9l0.8,1.8c1.3-0.6,2.4-1.4,3.3-2.5L23.2,22.8z M20.6,24.7
		c-1.1,0.5-2.3,0.8-3.6,0.8v2c1.6,0,3.1-0.3,4.4-0.9L20.6,24.7z M17,25.5c-1.6,0-3.1-0.4-4.5-1.3l-1.1,1.7c1.7,1.1,3.6,1.6,5.6,1.6
		V25.5z M11.9,26c0.3,0,0.6,0,0.9,0v-2c-0.3,0-0.5,0-0.7,0L11.9,26z M12.8,26.1c1.7,0,3.3-0.5,4.7-1.6l-1.2-1.6
		c-1,0.8-2.2,1.2-3.5,1.2V26.1z M16.9,22.7c-0.5,0-1-0.1-1.3-0.4l-1.2,1.6c0.7,0.5,1.6,0.8,2.5,0.8V22.7z M15.6,22.3
		c-0.4-0.3-0.7-0.7-0.8-1.2l-1.9,0.6c0.3,0.8,0.8,1.5,1.4,2.1L15.6,22.3z M13.7,22.4c0.2,0,0.5,0,0.7,0v-2c-0.2,0-0.3,0-0.5,0
		L13.7,22.4z M14.4,22.4c0.4,0,0.7,0,1.1-0.1l-0.4-2c-0.2,0-0.4,0.1-0.7,0.1V22.4z M15.5,20.4c-0.4-0.1-0.7-0.2-0.9-0.4l-1.2,1.6
		c0.5,0.4,1.1,0.7,1.8,0.8L15.5,20.4z M14.6,19.9c-0.3-0.2-0.5-0.5-0.7-0.8l-1.8,0.9c0.3,0.6,0.7,1,1.2,1.4L14.6,19.9z M13.9,19.1
		c-0.2-0.3-0.2-0.7-0.2-1h-2c0,0.7,0.1,1.3,0.4,1.9L13.9,19.1z M13.7,18.1L13.7,18.1l-2-0.1v0.1H13.7z M12.1,18.9
		c0.6,0.4,1.2,0.5,1.9,0.6l0.1-2c-0.4,0-0.7-0.1-1-0.3L12.1,18.9z M14.7,17.7c-0.7-0.5-1-1.1-1-1.9h-2c0,1.5,0.7,2.7,1.9,3.6
		L14.7,17.7z M13.7,15.7c0-0.4,0.1-0.8,0.3-1.1l-1.7-1c-0.4,0.7-0.6,1.4-0.6,2.2H13.7z M12.3,14.7c0.9,1.1,2,2,3.3,2.7l0.9-1.8
		c-1-0.5-1.9-1.3-2.6-2.2L12.3,14.7z M15.6,17.4c1.3,0.7,2.7,1,4.2,1.1l0.1-2c-1.2-0.1-2.3-0.4-3.4-0.9L15.6,17.4z M20.9,17.4
		c0-0.2,0-0.4,0-0.6h-2c0,0.3,0,0.6,0.1,0.9L20.9,17.4z M20.8,16.8c0-0.6,0.2-1.2,0.7-1.6L20,13.8c-0.8,0.8-1.2,1.9-1.2,3H20.8z
		 M21.5,15.2c0.5-0.5,1-0.7,1.6-0.7v-2c-1.2,0-2.2,0.4-3,1.3L21.5,15.2z M23.1,14.5c0.7,0,1.2,0.2,1.7,0.7l1.5-1.4
		c-0.8-0.9-1.9-1.3-3.1-1.3V14.5z M25.7,15.5c0.9-0.2,1.7-0.5,2.4-0.9l-1-1.7c-0.5,0.3-1.1,0.5-1.8,0.7L25.7,15.5z M26.6,13.4
		c-0.2,0.5-0.5,1-1,1.3l1.1,1.7c0.9-0.6,1.5-1.4,1.9-2.4L26.6,13.4z M26.3,16.6c0.7-0.1,1.4-0.3,2.1-0.6l-0.8-1.8
		c-0.5,0.2-1.1,0.4-1.6,0.5L26.3,16.6z M27.2,14.5c-0.4,0.6-0.9,1.1-1.4,1.5l1.2,1.6c0.7-0.5,1.4-1.2,1.9-2L27.2,14.5z M39,20
		c0,10.5-8.5,19-19,19v2c11.6,0,21-9.4,21-21H39z M20,39C9.5,39,1,30.5,1,20h-2c0,11.6,9.4,21,21,21V39z M1,20C1,9.5,9.5,1,20,1v-2
		C8.4-1-1,8.4-1,20H1z M20,1c10.5,0,19,8.5,19,19h2C41,8.4,31.6-1,20-1V1z"/>
</g>
</svg>
